<svg width="1980" height="1080" viewBox="0 0 1980 1080" fill="none" xmlns="http://www.w3.org/2000/svg">
<rect x="1980" y="1080" width="1980" height="1080" transform="rotate(-180 1980 1080)" fill="#C2A6F1"/>
<rect x="1980" y="1080" width="1980" height="1080" transform="rotate(-180 1980 1080)" fill="url(#paint0_radial_5_245)"/>
<rect x="1980" y="1080" width="1980" height="1080" transform="rotate(-180 1980 1080)" fill="url(#paint1_linear_5_245)"/>
<rect x="1980" y="1080" width="1980" height="1080" transform="rotate(-180 1980 1080)" fill="url(#paint2_linear_5_245)"/>
<rect x="1980" y="1080" width="1980" height="1080" transform="rotate(-180 1980 1080)" fill="url(#paint3_linear_5_245)"/>
<rect x="1980" y="1080" width="1980" height="1080" transform="rotate(-180 1980 1080)" fill="url(#paint4_radial_5_245)"/>
<rect x="1980" y="1080" width="1980" height="1080" transform="rotate(-180 1980 1080)" fill="url(#paint5_radial_5_245)"/>
<rect x="1980" y="1080" width="1980" height="1080" transform="rotate(-180 1980 1080)" fill="url(#paint6_radial_5_245)"/>
<rect x="1980" y="1080" width="1980" height="1080" transform="rotate(-180 1980 1080)" fill="url(#paint7_linear_5_245)"/>
<defs>
<radialGradient id="paint0_radial_5_245" cx="0" cy="0" r="1" gradientUnits="userSpaceOnUse" gradientTransform="translate(3776.85 1513.62) rotate(117.267) scale(1183.1 844.892)">
<stop stop-color="#FFFDB1"/>
<stop offset="0.344597" stop-color="#FEE4BF"/>
<stop offset="0.695017" stop-color="#F0BDD0"/>
<stop offset="1" stop-color="#FF8126" stop-opacity="0"/>
</radialGradient>
<linearGradient id="paint1_linear_5_245" x1="3104.89" y1="1007.05" x2="3350.58" y2="1365.77" gradientUnits="userSpaceOnUse">
<stop stop-color="#C0A9F0" stop-opacity="0"/>
<stop offset="0.456382" stop-color="#C0A9F0"/>
<stop offset="1" stop-color="#C0A9F0" stop-opacity="0"/>
</linearGradient>
<linearGradient id="paint2_linear_5_245" x1="4101.08" y1="826.717" x2="3883.02" y2="1368.07" gradientUnits="userSpaceOnUse">
<stop stop-color="#C0A9F0" stop-opacity="0"/>
<stop offset="0.461891" stop-color="#C0A9F0"/>
<stop offset="1" stop-color="#C0A9F0" stop-opacity="0"/>
</linearGradient>
<linearGradient id="paint3_linear_5_245" x1="2483.66" y1="1250.21" x2="2734.36" y2="1703.32" gradientUnits="userSpaceOnUse">
<stop stop-color="#CDF9E8"/>
<stop offset="1" stop-color="#CDF9E8" stop-opacity="0"/>
</linearGradient>
<radialGradient id="paint4_radial_5_245" cx="0" cy="0" r="1" gradientUnits="userSpaceOnUse" gradientTransform="translate(2882.14 1562.25) rotate(-133.49) scale(406.372 982.328)">
<stop stop-color="#CBADEB"/>
<stop offset="1" stop-color="#C2A6F1" stop-opacity="0"/>
</radialGradient>
<radialGradient id="paint5_radial_5_245" cx="0" cy="0" r="1" gradientUnits="userSpaceOnUse" gradientTransform="translate(2690.32 2160) rotate(-142.184) scale(632.864 867.747)">
<stop stop-color="#DC8DDC"/>
<stop offset="1" stop-color="#DC8DDC" stop-opacity="0"/>
</radialGradient>
<radialGradient id="paint6_radial_5_245" cx="0" cy="0" r="1" gradientUnits="userSpaceOnUse" gradientTransform="translate(2856.15 2019.17) rotate(-152.618) scale(614.596 952.628)">
<stop stop-color="#DC8DDC"/>
<stop offset="1" stop-color="#DC8DDC" stop-opacity="0"/>
</radialGradient>
<linearGradient id="paint7_linear_5_245" x1="1980" y1="1080" x2="2225.91" y2="1376.72" gradientUnits="userSpaceOnUse">
<stop stop-color="#EBF3D0"/>
<stop offset="1" stop-color="#EBF3D0" stop-opacity="0"/>
</linearGradient>
</defs>
</svg>
